HIERARCHY
ROOT Hips
{
	OFFSET 0.000000 71.427986 0.000000
	CHANNELS 6 Xposition Yposition Zposition Xrotation Yrotation Zrotation
	JOINT Pelvis
	{
		OFFSET 0.000000 0.000000 0.000000
		CHANNELS 3 Xrotation Yrotation Zrotation
		JOINT LeftUpLeg
		{
			OFFSET 6.797100 -2.508499 -1.318700
			CHANNELS 3 Xrotation Yrotation Zrotation
			JOINT LeftLeg
			{
				OFFSET 0.069008 -29.241863 0.690200
				CHANNELS 3 Xrotation Yrotation Zrotation
				JOINT LeftFoot
				{
					OFFSET -0.069008 -29.568123 -0.266800
					CHANNELS 3 Xrotation Yrotation Zrotation
					JOINT LeftToeBase
					{
						OFFSET 3.145500 -8.631000 16.059900
						CHANNELS 3 Xrotation Yrotation Zrotation
						End Site
						{
							OFFSET 0.000000 18.501587 0.000000
						}
					}
				}
			}
			JOINT Left_ShortSleeve
			{
				OFFSET 0.265923 -10.480953 1.153800
				CHANNELS 3 Xrotation Yrotation Zrotation
				End Site
				{
					OFFSET 1.725763 19.823879 0.000000
				}
			}
		}
		JOINT RightUpLeg
		{
			OFFSET -6.797100 -2.508499 -1.318700
			CHANNELS 3 Xrotation Yrotation Zrotation
			JOINT RightLeg
			{
				OFFSET -0.082453 -29.241932 0.688000
				CHANNELS 3 Xrotation Yrotation Zrotation
				JOINT RightFoot
				{
					OFFSET 0.082453 -29.568058 -0.264600
					CHANNELS 3 Xrotation Yrotation Zrotation
					JOINT RightToeBase
					{
						OFFSET -3.115300 -8.682800 16.113400
						CHANNELS 3 Xrotation Yrotation Zrotation
						End Site
						{
							OFFSET 0.000000 18.567114 0.000000
						}
					}
				}
			}
			JOINT Right_ShortSleeve
			{
				OFFSET -0.265923 -10.480953 1.153800
				CHANNELS 3 Xrotation Yrotation Zrotation
				End Site
				{
					OFFSET -1.725766 19.823910 0.000000
				}
			}
		}
	}
	JOINT Spine
	{
		OFFSET 0.000000 13.368103 0.470500
		CHANNELS 3 Xrotation Yrotation Zrotation
		JOINT Spine1
		{
			OFFSET 0.147000 13.837402 0.538800
			CHANNELS 3 Xrotation Yrotation Zrotation
			JOINT Spine2
			{
				OFFSET 0.168000 16.242897 -1.435500
				CHANNELS 3 Xrotation Yrotation Zrotation
				JOINT Neck
				{
					OFFSET 0.217200 18.631500 -1.679100
					CHANNELS 3 Xrotation Yrotation Zrotation
					JOINT Head
					{
						OFFSET 0.000000 6.599396 1.385900
						CHANNELS 3 Xrotation Yrotation Zrotation
						JOINT Hat
						{
							OFFSET -0.532200 27.220596 -10.096100
							CHANNELS 3 Xrotation Yrotation Zrotation
							End Site
							{
								OFFSET 0.000000 22.029861 0.000000
							}
						}
						JOINT HairD
						{
							OFFSET -10.777400 17.437393 -1.325900
							CHANNELS 3 Xrotation Yrotation Zrotation
							JOINT HairD1
							{
								OFFSET -3.290299 -11.051193 1.062200
								CHANNELS 3 Xrotation Yrotation Zrotation
								End Site
								{
									OFFSET 0.000000 11.579437 0.000000
								}
							}
						}
						JOINT HairB
						{
							OFFSET -10.777400 17.437393 1.467900
							CHANNELS 3 Xrotation Yrotation Zrotation
							JOINT HairB1
							{
								OFFSET -1.561200 -12.956299 3.590200
								CHANNELS 3 Xrotation Yrotation Zrotation
								End Site
								{
									OFFSET 0.000000 13.534866 0.000000
								}
							}
						}
						JOINT HairA
						{
							OFFSET 9.713100 17.437393 1.467900
							CHANNELS 3 Xrotation Yrotation Zrotation
							JOINT HairA1
							{
								OFFSET 1.561200 -12.956299 3.590200
								CHANNELS 3 Xrotation Yrotation Zrotation
								End Site
								{
									OFFSET 0.000000 13.534866 0.000000
								}
							}
						}
						JOINT HairC
						{
							OFFSET 9.713100 17.437393 -1.325900
							CHANNELS 3 Xrotation Yrotation Zrotation
							JOINT HairC1
							{
								OFFSET 3.290300 -11.051193 1.062200
								CHANNELS 3 Xrotation Yrotation Zrotation
								End Site
								{
									OFFSET 0.000000 11.579437 0.000000
								}
							}
						}
					}
				}
				JOINT LeftShoulder
				{
					OFFSET 5.101800 15.108002 -2.763700
					CHANNELS 3 Xrotation Yrotation Zrotation
					JOINT LeftArm
					{
						OFFSET 9.825497 2.506317 -1.597400
						CHANNELS 3 Xrotation Yrotation Zrotation
						JOINT LeftForeArm
						{
							OFFSET 21.966244 0.000000 0.000000
							CHANNELS 3 Xrotation Yrotation Zrotation
							JOINT LeftHand
							{
								OFFSET 33.879036 0.000000 0.000000
								CHANNELS 3 Xrotation Yrotation Zrotation
								JOINT LeftHandThumb1
								{
									OFFSET 6.715286 -2.359680 3.363841
									CHANNELS 3 Xrotation Yrotation Zrotation
									JOINT LeftHandThumb2
									{
										OFFSET 2.507072 -1.447464 1.447461
										CHANNELS 3 Xrotation Yrotation Zrotation
										JOINT LeftHandThumb3
										{
											OFFSET 2.898338 -1.673355 1.673357
											CHANNELS 3 Xrotation Yrotation Zrotation
											End Site
											{
												OFFSET -0.295959 3.727692 -0.131651
											}
										}
									}
								}
								JOINT LeftHandIndex1
								{
									OFFSET 14.190811 -0.254547 3.840278
									CHANNELS 3 Xrotation Yrotation Zrotation
									JOINT LeftHandIndex2
									{
										OFFSET 3.551727 0.000000 -0.000000
										CHANNELS 3 Xrotation Yrotation Zrotation
										JOINT LeftHandIndex3
										{
											OFFSET 2.894196 0.000000 0.000000
											CHANNELS 3 Xrotation Yrotation Zrotation
											End Site
											{
												OFFSET -1.000603 2.690872 0.366626
											}
										}
									}
								}
								JOINT LeftHandMiddle1
								{
									OFFSET 13.776489 0.000000 0.000000
									CHANNELS 3 Xrotation Yrotation Zrotation
									JOINT LeftHandMiddle2
									{
										OFFSET 3.438232 0.000000 0.000000
										CHANNELS 3 Xrotation Yrotation Zrotation
										JOINT LeftHandMiddle3
										{
											OFFSET 3.691551 0.000000 0.000000
											CHANNELS 3 Xrotation Yrotation Zrotation
											End Site
											{
												OFFSET -1.082298 3.499527 0.457670
											}
										}
									}
								}
								JOINT LeftHandRing1
								{
									OFFSET 13.966164 -0.268127 -3.067488
									CHANNELS 3 Xrotation Yrotation Zrotation
									JOINT LeftHandRing2
									{
										OFFSET 3.162567 0.000000 0.000000
										CHANNELS 3 Xrotation Yrotation Zrotation
										JOINT LeftHandRing3
										{
											OFFSET 3.324348 0.000000 0.000000
											CHANNELS 3 Xrotation Yrotation Zrotation
											End Site
											{
												OFFSET -0.861900 3.184998 0.405154
											}
										}
									}
								}
								JOINT LeftHandPinky1
								{
									OFFSET 13.131393 -0.168503 -5.746925
									CHANNELS 3 Xrotation Yrotation Zrotation
									JOINT LeftHandPinky2
									{
										OFFSET 2.849182 0.000000 0.000000
										CHANNELS 3 Xrotation Yrotation Zrotation
										JOINT LeftHandPinky3
										{
											OFFSET 2.805038 0.000000 0.000000
											CHANNELS 3 Xrotation Yrotation Zrotation
											End Site
											{
												OFFSET -0.882500 2.642609 0.325652
											}
										}
									}
								}
							}
							JOINT Left_Sleeve
							{
								OFFSET 6.592125 -0.646545 0.805568
								CHANNELS 3 Xrotation Yrotation Zrotation
								End Site
								{
									OFFSET -0.000179 20.275787 -0.000000
								}
							}
						}
					}
				}
				JOINT RightShoulder
				{
					OFFSET -5.731700 15.108002 -2.763700
					CHANNELS 3 Xrotation Yrotation Zrotation
					JOINT RightArm
					{
						OFFSET -9.825497 2.506317 -1.597400
						CHANNELS 3 Xrotation Yrotation Zrotation
						JOINT RightForeArm
						{
							OFFSET -21.966242 0.000000 0.000000
							CHANNELS 3 Xrotation Yrotation Zrotation
							JOINT RightHand
							{
								OFFSET -33.879032 0.000000 0.000000
								CHANNELS 3 Xrotation Yrotation Zrotation
								JOINT RightHandThumb1
								{
									OFFSET -6.715286 -2.359680 3.363841
									CHANNELS 3 Xrotation Yrotation Zrotation
									JOINT RightHandThumb2
									{
										OFFSET -2.507072 -1.447464 1.447461
										CHANNELS 3 Xrotation Yrotation Zrotation
										JOINT RightHandThumb3
										{
											OFFSET -2.898338 -1.673355 1.673357
											CHANNELS 3 Xrotation Yrotation Zrotation
											End Site
											{
												OFFSET 0.295959 3.727692 -0.131651
											}
										}
									}
								}
								JOINT RightHandIndex1
								{
									OFFSET -14.190811 -0.254547 3.840278
									CHANNELS 3 Xrotation Yrotation Zrotation
									JOINT RightHandIndex2
									{
										OFFSET -3.551727 0.000000 -0.000000
										CHANNELS 3 Xrotation Yrotation Zrotation
										JOINT RightHandIndex3
										{
											OFFSET -2.894196 0.000000 0.000000
											CHANNELS 3 Xrotation Yrotation Zrotation
											End Site
											{
												OFFSET 1.000603 2.690872 0.366626
											}
										}
									}
								}
								JOINT RightHandMiddle1
								{
									OFFSET -13.776489 0.000000 0.000000
									CHANNELS 3 Xrotation Yrotation Zrotation
									JOINT RightHandMiddle2
									{
										OFFSET -3.438232 0.000000 0.000000
										CHANNELS 3 Xrotation Yrotation Zrotation
										JOINT RightHandMiddle3
										{
											OFFSET -3.691551 0.000000 0.000000
											CHANNELS 3 Xrotation Yrotation Zrotation
											End Site
											{
												OFFSET 1.082298 3.499527 0.457670
											}
										}
									}
								}
								JOINT RightHandRing1
								{
									OFFSET -13.966164 -0.268127 -3.067488
									CHANNELS 3 Xrotation Yrotation Zrotation
									JOINT RightHandRing2
									{
										OFFSET -3.162567 0.000000 0.000000
										CHANNELS 3 Xrotation Yrotation Zrotation
										JOINT RightHandRing3
										{
											OFFSET -3.324348 0.000000 0.000000
											CHANNELS 3 Xrotation Yrotation Zrotation
											End Site
											{
												OFFSET 0.861900 3.184998 0.405154
											}
										}
									}
								}
								JOINT RightHandPinky1
								{
									OFFSET -13.131393 -0.168503 -5.746925
									CHANNELS 3 Xrotation Yrotation Zrotation
									JOINT RightHandPinky2
									{
										OFFSET -2.849182 0.000000 0.000000
										CHANNELS 3 Xrotation Yrotation Zrotation
										JOINT RightHandPinky3
										{
											OFFSET -2.805038 0.000000 0.000000
											CHANNELS 3 Xrotation Yrotation Zrotation
											End Site
											{
												OFFSET 0.882500 2.642609 0.325652
											}
										}
									}
								}
							}
							JOINT Right_Sleeve
							{
								OFFSET -6.592125 -0.646545 0.805568
								CHANNELS 3 Xrotation Yrotation Zrotation
								End Site
								{
									OFFSET 0.000179 20.275787 -0.000000
								}
							}
						}
					}
				}
				JOINT Bind_Right_JacketString
				{
					OFFSET -3.534800 11.969597 7.200700
					CHANNELS 3 Xrotation Yrotation Zrotation
					JOINT Bind_Right_JacketString1
					{
						OFFSET -0.319900 -6.102600 2.794100
						CHANNELS 3 Xrotation Yrotation Zrotation
						End Site
						{
							OFFSET 0.000000 6.719452 0.000000
						}
					}
				}
				JOINT Bind_Left_JacketString
				{
					OFFSET 2.904800 11.969597 7.200700
					CHANNELS 3 Xrotation Yrotation Zrotation
					JOINT Bind_Left_JacketString1
					{
						OFFSET 0.364800 -5.904503 3.186800
						CHANNELS 3 Xrotation Yrotation Zrotation
						End Site
						{
							OFFSET 0.000000 6.719513 0.000000
						}
					}
				}
				JOINT HairE
				{
					OFFSET 5.915200 17.612701 -11.592200
					CHANNELS 3 Xrotation Yrotation Zrotation
					JOINT HairE1
					{
						OFFSET 0.289200 -7.171898 -1.284500
						CHANNELS 3 Xrotation Yrotation Zrotation
						End Site
						{
							OFFSET 0.000000 7.291756 0.000000
						}
					}
				}
				JOINT HairF
				{
					OFFSET -0.864800 17.612701 -11.592200
					CHANNELS 3 Xrotation Yrotation Zrotation
					JOINT HairF1
					{
						OFFSET 0.000000 -14.087097 -2.127501
						CHANNELS 3 Xrotation Yrotation Zrotation
						End Site
						{
							OFFSET 0.000000 14.246841 0.000000
						}
					}
				}
				JOINT HairG
				{
					OFFSET -8.087700 17.612701 -11.592200
					CHANNELS 3 Xrotation Yrotation Zrotation
					JOINT HairG1
					{
						OFFSET -0.293600 -6.081398 -0.910100
						CHANNELS 3 Xrotation Yrotation Zrotation
						End Site
						{
							OFFSET 0.000000 6.156120 0.000000
						}
					}
				}
			}
		}
	}
	JOINT Pouch
	{
		OFFSET 0.000000 4.394501 10.847300
		CHANNELS 3 Xrotation Yrotation Zrotation
		End Site
		{
			OFFSET 0.000000 21.880577 0.000000
		}
	}
	JOINT Bag
	{
		OFFSET -13.229000 4.813004 -0.593300
		CHANNELS 3 Xrotation Yrotation Zrotation
		End Site
		{
			OFFSET 0.000000 21.880577 0.000000
		}
	}
	JOINT OccupyGuyFacialAnim_Joint
	{
		OFFSET 1.000000 -70.206398 -1.655000
		CHANNELS 3 Xrotation Yrotation Zrotation
		End Site
		{
			OFFSET 0.000000 21.880577 0.000000
		}
	}
}
MOTION
Frames: 4
Frame Time: 0.016667
-0.019274 62.735077 0.823944 -14.105749 4.571297 -0.315872 0.000000 0.000000 0.000000 -16.838506 -1.368413 13.871990 58.871723 -0.483495 0.413714 -27.690294 -1.415372 -11.306997 0.000000 -0.000000 0.000000 -0.000000 0.000000 0.000001 -13.663342 -10.554428 -14.973764 58.593686 0.223827 -0.378971 -30.029593 -3.892730 10.014540 0.000000 0.000000 -0.000000 -0.000002 -0.000001 -0.000002 20.016476 -0.053479 0.815163 6.967312 -0.338753 0.679832 6.967508 -0.337003 0.677442 -12.249461 -1.248218 -0.496002 -16.116682 -1.754210 -0.002247 0.000000 -0.000000 0.000000 0.000000 -0.000000 0.000000 0.000000 -0.000000 0.000000 0.000000 -0.000000 -0.000000 0.000001 -0.000000 -0.000000 0.000000 -0.000000 -0.000000 0.000001 -0.000000 -0.000000 0.000000 -0.000000 0.000000 0.000000 -0.000000 0.000000 3.082221 -9.945126 -6.811323 -13.959244 -7.908232 -60.295250 69.634182 -63.509134 71.597007 17.167911 -2.491270 -13.648295 2.689269 3.159875 6.593323 -0.080936 21.143655 -2.540010 -0.000002 -0.000000 -0.000000 -10.621185 2.937297 -19.267723 1.676652 6.185705 -21.756500 0.000001 -0.000003 -0.000002 -13.823037 9.936966 -22.469208 6.049012 4.246383 -31.221959 -0.000000 0.000001 -0.000001 -10.744661 8.325256 -36.571073 3.038179 0.221624 -39.078712 -0.000000 -0.000000 -0.000001 -11.942425 9.095577 -39.265443 4.640665 -6.164087 -45.289314 -0.000001 -0.000001 0.000003 -0.000001 0.000001 -0.000001 8.709560 -2.418514 18.823141 -21.494479 12.934318 56.855523 76.344139 65.516985 -70.724567 6.442926 -2.140724 3.544932 2.153168 -3.555299 -6.484346 -0.079163 -21.146032 2.540869 -0.000002 -0.000002 0.000000 -10.621234 -2.937080 19.269086 1.668973 -6.188767 21.755264 -0.000002 0.000003 -0.000003 -13.688476 -10.244144 24.164204 6.044757 -4.250332 31.223356 0.000002 -0.000003 -0.000005 -10.744606 -8.325816 36.570004 3.037651 -0.220802 39.079313 0.000001 -0.000003 -0.000001 -11.872861 -9.179262 39.251984 4.640925 6.162580 45.288840 0.000000 0.000003 -0.000001 0.000003 -0.000000 0.000001 0.000001 0.000000 -0.000000 0.000001 -0.000000 0.000000 0.000001 0.000000 -0.000000 0.000001 0.000000 -0.000000 0.000001 0.000000 -0.000000 0.000001 -0.000000 -0.000000 0.000001 0.000000 -0.000000 0.000001 0.000000 -0.000000 0.000001 0.000000 -0.000000 0.000001 -0.000000 -0.000000 0.000000 0.000000 0.000000 0.000000 0.000000 0.000000 0.000000 0.000000 0.000000 
-0.007395 62.705704 0.862989 -14.110964 4.596582 -0.342813 0.000000 -0.000000 -0.000000 -16.863956 -1.381082 13.908652 59.005451 -0.468186 0.415024 -27.798815 -1.460185 -11.316335 -0.000000 0.000001 -0.000000 -0.000002 0.000000 0.000001 -13.648773 -10.576223 -14.974918 58.675382 0.226321 -0.379892 -30.112535 -3.893621 10.038791 0.000000 0.000000 0.000000 -0.000001 0.000000 -0.000000 20.015593 -0.048913 0.833234 6.967178 -0.335988 0.689694 6.967397 -0.333837 0.687154 -12.402455 -1.254038 -0.550726 -15.969515 -1.766948 -0.026611 -0.000001 -0.000000 -0.000000 -0.000001 -0.000000 -0.000000 -0.000001 -0.000000 -0.000000 -0.000001 -0.000000 -0.000000 -0.000000 -0.000000 -0.000000 -0.000001 -0.000000 -0.000000 -0.000000 -0.000000 -0.000000 -0.000001 -0.000000 -0.000000 -0.000001 -0.000000 -0.000000 2.956823 -10.038396 -7.341126 -14.073631 -7.895408 -59.003648 69.357197 -63.656079 70.461160 17.123233 -2.624955 -13.215287 2.689245 3.159891 6.593328 -0.287826 20.662248 -2.531877 0.000001 0.000001 0.000001 -11.138181 2.712250 -18.389678 1.552183 5.861876 -19.735857 0.000000 -0.000002 -0.000004 -13.879085 10.042398 -21.846823 5.907033 4.051373 -29.917222 -0.000000 0.000004 -0.000002 -10.653141 8.348578 -36.293330 2.916210 0.076524 -38.156766 0.000001 0.000000 -0.000002 -11.616305 8.724571 -38.572988 4.514734 -6.309759 -43.933334 0.000001 -0.000006 0.000002 -0.000003 -0.000001 -0.000001 8.710150 -2.421087 18.860184 -21.489472 12.863789 56.693678 76.539257 65.641799 -70.847414 6.461549 -2.179862 3.507931 2.153185 -3.555338 -6.484356 -0.610706 -20.410519 2.900130 0.000005 0.000000 -0.000001 -10.520691 -3.668427 20.527765 1.742393 -6.421444 23.270939 -0.000004 0.000002 0.000004 -12.798075 -11.730803 26.093221 7.096440 -4.803689 37.106382 0.000001 -0.000001 -0.000003 -10.279130 -10.017694 38.435636 3.702687 -0.867356 43.457762 -0.000000 0.000000 -0.000002 -11.226718 -10.556386 39.654176 5.236504 5.735990 47.984773 0.000001 0.000001 -0.000001 0.000000 -0.000001 -0.000000 -0.000001 -0.000000 -0.000000 -0.000001 -0.000000 0.000000 -0.000001 -0.000000 0.000000 -0.000001 -0.000000 0.000000 -0.000001 -0.000000 -0.000000 -0.000001 -0.000000 -0.000000 -0.000001 -0.000000 0.000000 -0.000001 -0.000000 0.000000 -0.000001 -0.000000 -0.000000 -0.000001 -0.000000 -0.000000 0.000000 -0.000000 -0.000000 0.000000 -0.000000 -0.000000 0.000000 -0.000000 -0.000000 
0.015328 62.656120 0.932726 -14.124229 4.671848 -0.391468 -0.000000 -0.000000 -0.000000 -16.910368 -1.410375 13.977621 59.236810 -0.482318 0.416541 -27.984964 -1.529576 -11.310975 0.000000 0.000000 -0.000000 0.000001 -0.000001 0.000001 -13.603242 -10.632018 -14.972857 58.804329 0.225223 -0.381416 -30.255788 -3.908205 10.086105 0.000000 -0.000000 -0.000000 -0.000003 0.000000 -0.000000 20.011379 -0.039924 0.869276 6.966027 -0.327720 0.719249 6.966378 -0.324708 0.716456 -12.555787 -1.289426 -0.611312 -15.824413 -1.789684 -0.122986 -0.000001 0.000000 0.000000 -0.000001 0.000000 0.000000 -0.000001 0.000000 0.000000 -0.000001 0.000000 0.000000 -0.000001 -0.000000 0.000000 -0.000001 0.000000 0.000000 -0.000001 -0.000000 0.000000 -0.000001 0.000000 0.000000 -0.000001 0.000000 0.000000 2.764794 -10.227418 -8.150479 -14.313653 -7.958069 -56.721846 68.594401 -63.723363 67.966420 16.833727 -3.061333 -12.252572 2.689270 3.159882 6.593342 -0.630833 19.898812 -2.536173 -0.000002 0.000001 -0.000000 -12.168917 1.722891 -16.142766 1.361315 5.271975 -16.144870 -0.000000 0.000000 -0.000002 -13.999957 10.170328 -20.576867 5.654355 3.687277 -27.544194 0.000001 0.000003 -0.000001 -10.488796 8.375456 -35.525747 2.674441 -0.231026 -36.299624 -0.000001 0.000005 -0.000000 -11.042167 8.059845 -37.136169 4.281197 -6.560052 -41.506202 -0.000001 0.000000 0.000001 0.000001 0.000000 -0.000001 8.718472 -2.429203 18.921156 -21.496053 12.656102 56.308288 77.004092 65.942594 -71.153154 6.484118 -2.258937 3.402539 2.153170 -3.555318 -6.484331 -1.483761 -19.373497 3.562828 -0.000002 -0.000001 0.000001 -10.129363 -5.075103 23.066150 1.897892 -6.845624 26.077669 -0.000001 0.000004 0.000003 -11.051840 -14.266153 29.928301 8.898213 -5.409231 45.950760 -0.000001 -0.000001 -0.000001 -9.577500 -12.642693 41.718570 4.859881 -1.754952 50.235382 0.000001 0.000003 -0.000003 -10.193574 -12.691893 40.965152 6.310987 5.065901 52.618046 -0.000000 0.000004 0.000003 0.000000 -0.000001 0.000001 0.000002 -0.000000 -0.000000 0.000002 -0.000000 -0.000000 0.000002 -0.000000 -0.000000 0.000002 -0.000000 -0.000000 0.000002 -0.000000 -0.000000 0.000002 -0.000000 -0.000000 0.000002 -0.000000 -0.000000 0.000002 -0.000000 -0.000000 0.000002 -0.000000 -0.000000 0.000002 -0.000000 -0.000000 -0.000000 -0.000000 -0.000000 -0.000000 -0.000000 -0.000000 -0.000000 -0.000000 -0.000000 
0.040151 62.611717 0.996723 -14.143986 4.784127 -0.434132 -0.000001 -0.000000 -0.000000 -16.944422 -1.502582 14.009435 59.450335 -0.497049 0.417916 -28.151866 -1.562242 -11.302530 0.000000 -0.000000 0.000000 -0.000001 -0.000001 -0.000001 -13.535070 -10.693676 -14.964386 58.910580 0.223722 -0.382588 -30.386272 -3.958928 10.133888 -0.000000 -0.000002 -0.000000 -0.000001 -0.000000 0.000001 20.004449 -0.027981 0.904568 6.959313 -0.313090 0.767879 6.959681 -0.306489 0.764834 -12.549949 -1.367070 -0.625489 -15.846493 -1.813088 -0.313112 -0.000001 0.000000 -0.000000 -0.000001 0.000000 -0.000000 -0.000001 0.000000 -0.000000 -0.000001 0.000000 -0.000000 0.000000 0.000000 0.000000 -0.000001 0.000000 -0.000000 0.000000 0.000000 0.000000 -0.000001 0.000000 -0.000000 -0.000001 0.000000 -0.000000 2.605480 -10.449065 -8.667086 -14.613391 -8.282416 -54.611986 67.543864 -63.362552 64.922697 16.132886 -3.862285 -11.017629 2.689263 3.159893 6.593348 -0.900167 19.338180 -2.567396 0.000001 -0.000000 0.000004 -13.757830 -1.808878 -12.928987 1.209589 4.688510 -12.660389 0.000002 0.000001 0.000002 -14.161500 10.155891 -19.030975 5.407130 3.296414 -25.125408 0.000002 0.000001 0.000001 -10.326075 8.356956 -34.230907 2.383929 -0.635099 -34.078785 -0.000001 0.000004 -0.000001 -10.519292 7.413656 -35.362529 4.024515 -6.770203 -39.148633 -0.000000 0.000002 -0.000000 -0.000000 0.000000 -0.000001 8.730928 -2.444810 18.974037 -21.553780 12.391528 55.888942 77.539067 66.277260 -71.520605 6.490352 -2.336612 3.273592 2.153179 -3.555315 -6.484340 -2.139614 -18.745789 4.295037 -0.000002 0.000002 0.000000 -9.428688 -6.650062 26.075065 2.076138 -7.264190 28.901973 -0.000001 -0.000002 0.000005 -8.933261 -16.558107 34.446488 9.998502 -5.648532 51.048902 0.000001 0.000005 -0.000002 -9.304934 -14.241841 44.634586 5.737662 -2.268996 54.937715 0.000002 0.000001 -0.000004 -9.441456 -13.995644 43.355824 7.329733 4.554856 56.877987 -0.000000 0.000005 0.000001 0.000003 -0.000001 0.000001 0.000002 -0.000000 -0.000000 0.000000 -0.000000 0.000000 0.000002 -0.000000 -0.000000 0.000002 -0.000000 -0.000000 0.000002 -0.000000 -0.000000 0.000000 -0.000000 -0.000000 0.000002 -0.000000 -0.000000 0.000002 -0.000000 -0.000000 0.000002 -0.000000 -0.000000 0.000000 -0.000000 -0.000000 -0.000001 -0.000000 -0.000000 -0.000001 -0.000000 -0.000000 -0.000001 -0.000000 -0.000000 
